# xmcd
#
# Track frame offsets: 
#        150
#        3083
#        18935
#        30652
#        44325
#        58894
#        69203
#        78942
#        92264
#        103910
#        106142
#        114300
#        128365
#
# Disc length: 2498 seconds
#
# Revision: 0
# Processed by: cddbd v1.5.2PL0 Copyright (c) Steve Scherf et al.
# Submitted via: ExactAudioCopy v0.99pb3
#
DISCID=8c09c00d
DTITLE=Spider John Koerner - March 1963
DYEAR=1963
DGENRE=Folk Blues
TTITLE0=Introduction
TTITLE1=Duncan and Brady
TTITLE2=Southbound Train
TTITLE3=Hangman
TTITLE4=Rock Me
TTITLE5=Too Bad Blues
TTITLE6=Guitar Fools
TTITLE7=Creepy John
TTITLE8=You've Got To Be Careful
TTITLE9=Interview Anectdote
TTITLE10=Good Time Charlie
TTITLE11=Ramblin' Blues
TTITLE12=Untitled Instrumental [Edited]
EXTD=
EXTT0=
EXTT1=
EXTT2=
EXTT3=
EXTT4=
EXTT5=
EXTT6=
EXTT7=
EXTT8=
EXTT9=
EXTT10=
EXTT11=
EXTT12=
PLAYORDER=
